<?xml version="1.0" encoding="utf-8"?>
<!-- Generator: Adobe Illustrator 19.0.0, SVG Export Plug-In . SVG Version: 6.00 Build 0)  -->
<svg version="1.1" id="Layer_1" xmlns="http://www.w3.org/2000/svg" xmlns:xlink="http://www.w3.org/1999/xlink" x="0px" y="0px"
	 viewBox="-463 265 32 32" style="enable-background:new -463 265 32 32;" xml:space="preserve">
<style type="text/css">
	.st0{fill:#444444;}
</style>
<path class="st0" d="M-463,265v32h32v-32H-463z M-444.7,287.4c0,0-1.1,0.1-2.3,0.1s-2.3-0.1-2.3-0.1c-2.8-0.3-5.7-1.4-5.7-6.2
	c0-1.4,0.5-2.5,1.3-3.4c-0.1-0.3-0.6-1.6,0.1-3.3c0,0,1.1-0.3,3.4,1.3c1-0.3,2.1-0.4,3.1-0.4c1.1,0,2.1,0.1,3.1,0.4
	c2.4-1.6,3.4-1.3,3.4-1.3c0.7,1.7,0.3,3,0.1,3.3c0.8,0.9,1.3,2,1.3,3.4C-439,286-441.9,287.1-444.7,287.4z"/>
</svg>
